<?xml version="1.0" encoding="UTF-8"?>
<svg width="458px" height="110px" viewBox="0 0 458 110" version="1.1" xmlns="http://www.w3.org/2000/svg" xmlns:xlink="http://www.w3.org/1999/xlink">
    <title>adiclub-logo-svg-white</title>
    <g id="adiclub-logo-svg-white" stroke="none" stroke-width="1" fill="none" fill-rule="evenodd">
        <g id="adi-club-logo" fill="#FFFFFF" fill-rule="nonzero">
            <path d="M40.8600025,109.66 C18.4900025,109.66 1.22793578e-06,91.06 1.22793578e-06,68.57 C-0.00265433098,57.7342783 4.30201189,47.341889 11.9658998,39.6817524 C19.6297878,32.0216157 30.0242834,27.7220381 40.8600025,27.73 C49.2082605,27.6200798 57.3870526,30.0890832 64.2800025,34.8 L64.2800025,28.57 L83.5500025,28.57 L83.5500025,107.87 L64.2800025,107.87 L64.2800025,102.57 C57.366206,107.237195 49.2014324,109.701967 40.8600025,109.64 M18.7400025,68.57 C18.9190242,80.974324 28.9747625,90.9634385 41.3800025,91.06 C53.8700025,91.06 64.2800025,80.87 64.2800025,68.55 C64.0957618,56.0026609 53.9282355,45.8972941 41.3800025,45.79 C28.9034103,45.9847532 18.8578384,56.0924443 18.7400025,68.57" id="Shape"></path>
            <path d="M131.420002,109.66 C116.380684,110.281818 102.209865,102.612782 94.5049458,89.6821213 C86.8000269,76.7514608 86.8000269,60.6385392 94.5049458,47.7078787 C102.209865,34.7772181 116.380684,27.1081818 131.420002,27.73 C139.67759,27.6242265 147.762723,30.0955576 154.550002,34.8 L154.550002,1.57 L174.060002,1.57 L174.060002,107.82 L154.550002,107.82 L154.550002,102.57 C147.700049,107.167269 139.639645,109.62785 131.390002,109.64 M109.040002,68.57 C109.040002,80.89 119.450002,91.08 131.950002,91.08 C144.26559,90.8211257 154.114214,80.7633078 154.114214,68.445 C154.114214,56.1266922 144.26559,46.0688743 131.950002,45.81 C119.400076,45.9171818 109.22962,56.0210482 109.040002,68.57" id="Shape"></path>
            <rect id="Rectangle" x="183.740002" y="28.51" width="19.54" height="79.31"></rect>
            <rect id="Rectangle" x="183.740002" y="1.56" width="19.52" height="19.63"></rect>
            <path d="M235.460002,107.57 C230.923635,107.683288 226.4382,106.592982 222.460002,104.41 C218.770402,102.282135 215.821377,99.074852 214.010002,95.22 C211.933707,90.6575166 210.928082,85.6807001 211.070002,80.67 C211.016818,74.3221785 212.139055,68.0193451 214.380002,62.08 C216.459741,56.5643446 219.507564,51.4643203 223.380002,47.02 C226.974843,42.8419682 231.341112,39.3958068 236.240002,36.87 C244.215024,32.8408504 253.457995,32.1221123 261.960002,34.87 C265.110271,36.0367625 268.021258,37.7684441 270.550002,39.98 L261.920002,51.57 L259.550002,51.57 C258.716979,48.5816695 257.176944,45.837732 255.060002,43.57 C253.049939,41.6358191 250.337205,40.6063528 247.550002,40.72 C244.438561,40.7124233 241.414284,41.7475074 238.960002,43.66 C236.185623,45.8196992 233.904709,48.5472496 232.270002,51.66 C230.327082,55.2485282 228.86774,59.0784607 227.930002,63.05 C226.893084,67.332304 226.376023,71.7239665 226.390002,76.13 C226.390002,82.69 227.723336,87.7833333 230.390002,91.41 C233.056669,95.0366667 237.220002,96.85 242.880002,96.85 C246.236515,96.8454267 249.549941,96.0939279 252.580002,94.65 C255.696017,93.1956854 258.532428,91.205459 260.960002,88.77 L263.460002,90.82 C260.867708,95.9514763 256.864111,100.236089 251.920002,103.17 C246.941888,106.121307 241.246746,107.643702 235.460002,107.57 L235.460002,107.57 Z" id="Path"></path>
            <path d="M280.140002,107.88 C276.420002,107.88 273.923336,106.363333 272.650002,103.33 C271.376669,100.296667 271.080002,96.5233333 271.760002,92.01 L284.260002,13.08 L275.730002,7.65 L276.170002,5 L298.810002,0.3 L300.720002,1.77 L287.050002,88.48 C286.654477,90.8402108 286.654477,93.2497892 287.050002,95.61 C287.258759,97.2798309 288.754164,98.4832342 290.430002,98.33 C291.268735,98.3442488 292.106649,98.2705123 292.930002,98.11 C293.610002,97.96 294.250002,97.79 294.840002,97.6 L296.010002,100.53 C293.754493,102.592733 291.235971,104.347965 288.520002,105.75 C285.940198,107.127688 283.064546,107.858612 280.140002,107.88 Z" id="Path"></path>
            <path d="M324.670002,108.18 C321.296098,108.271846 318.022273,107.028439 315.560002,104.72 C312.941875,102.113583 311.153474,98.7907762 310.420002,95.17 C309.42589,90.6025878 309.324022,85.8860751 310.120002,81.28 L315.860002,45.42 L307.330002,39.98 L307.770002,37.34 L330.410002,32.63 L332.320002,34.1 L324.970002,80.4 C324.176669,85.4 324.510002,89.3666667 325.970002,92.3 C327.142404,95.0506466 329.881312,96.8011657 332.870002,96.71 C335.530127,96.6657491 338.154689,96.0912012 340.590002,95.02 C343.564367,93.725308 346.355075,92.0441584 348.890002,90.02 C351.885344,87.6700401 354.645004,85.0342965 357.130002,82.15 L359.180002,85.97 C356.278882,90.4127762 352.820755,94.4657408 348.890002,98.03 C345.431854,101.180245 341.470353,103.728855 337.170002,105.57 C333.218217,107.262141 328.968725,108.149435 324.670002,108.18 Z M363.330002,107.88 C359.603336,107.88 357.080002,106.363333 355.760002,103.33 C354.440002,100.296667 354.106669,96.5233333 354.760002,92.01 L362.110002,45.42 L353.590002,39.98 L354.030002,37.34 L376.660002,32.63 L378.570002,34.1 L370.050002,88.48 C369.646066,90.8416732 369.669776,93.2567127 370.120002,95.61 C370.377056,97.2863751 371.89033,98.4760012 373.580002,98.33 C374.418735,98.3442488 375.256649,98.2705123 376.080002,98.11 C376.760002,97.96 377.400002,97.79 377.990002,97.6 L379.160002,100.53 C376.904493,102.592733 374.385971,104.347965 371.670002,105.75 C369.102162,107.121432 366.240991,107.852163 363.330002,107.88 L363.330002,107.88 Z" id="Shape"></path>
            <path d="M390.550002,107.88 L388.490002,106.41 L403.340002,12.79 L394.810002,7.35 L395.250002,4.71 L417.890002,0 L419.800002,1.47 L403.800002,103.03 L390.550002,107.88 Z M418.150002,107.570281 C412.756669,107.570281 408.346669,106.57 404.920002,104.57 C401.037211,102.171224 397.563292,99.1665707 394.630002,95.67 L405.360002,88.18 C406.623624,91.5645617 408.60579,94.6350425 411.170002,97.18 C413.303418,99.1588886 416.120616,100.234155 419.030002,100.18 C422.272778,100.109069 425.390313,98.9143676 427.850002,96.8 C430.929759,94.2744522 433.542679,91.2283016 435.570002,87.8 C437.972434,83.7883302 439.800243,79.4594856 441.000002,74.94 C442.329916,70.1533098 443.002747,65.2080042 443.000002,60.24 C443.000002,54.46 442.240002,50.32 440.720002,47.82 C439.200002,45.32 436.726669,44.0733333 433.300002,44.08 C429.966669,44.08 425.876669,45.67 421.030002,48.85 C415.90277,52.2887525 411.318723,56.4750663 407.430002,61.27 L406.840002,56.72 C409.381372,52.1230578 412.631226,47.9552799 416.470002,44.37 C420.179775,40.8577857 424.422312,37.955175 429.040002,35.77 C433.114589,33.7676539 437.58068,32.68869 442.120002,32.61 C445.217556,32.5343198 448.248092,33.5186267 450.710002,35.4 C453.258511,37.4622705 455.192083,40.1844903 456.300002,43.27 C457.707758,47.1106504 458.386047,51.1803829 458.300002,55.27 C458.346308,62.1332106 457.279118,68.9584979 455.140002,75.48 C453.203831,81.4860199 450.273101,87.124379 446.470002,92.16 C443.025134,96.7614117 438.676134,100.610175 433.690002,103.47 C428.960504,106.179021 423.600361,107.593216 418.150002,107.570281 Z" id="Shape"></path>
        </g>
    </g>
</svg>